<svg width="16" height="16" viewBox="0 0 16 16" fill="none" xmlns="http://www.w3.org/2000/svg">
<path fill-rule="evenodd" clip-rule="evenodd" d="M2.75 7.33333C2.75 4.80203 4.80203 2.75 7.33333 2.75C9.86464 2.75 11.9167 4.80203 11.9167 7.33333C11.9167 8.56596 11.4301 9.68494 10.6385 10.5087C10.6146 10.5273 10.5917 10.5477 10.5697 10.5696C10.5477 10.5916 10.5274 10.6146 10.5087 10.6385C9.68496 11.4301 8.56597 11.9167 7.33333 11.9167C4.80203 11.9167 2.75 9.86464 2.75 7.33333ZM11.072 12.1326C10.0405 12.9373 8.7429 13.4167 7.33333 13.4167C3.9736 13.4167 1.25 10.6931 1.25 7.33333C1.25 3.9736 3.9736 1.25 7.33333 1.25C10.6931 1.25 13.4167 3.9736 13.4167 7.33333C13.4167 8.74289 12.9373 10.0405 12.1326 11.0719L14.5303 13.4696C14.8232 13.7625 14.8232 14.2374 14.5303 14.5303C14.2374 14.8232 13.7626 14.8232 13.4697 14.5303L11.072 12.1326Z" fill="#A0AEC0"/>
</svg>
